<mxfile host="app.diagrams.net" modified="2023-05-12T04:35:16.524Z" agent="Mozilla/5.0 (X11; Linux x86_64; rv:109.0) Gecko/20100101 Firefox/113.0" version="21.2.9" etag="T7UIrojlXZi5JIBDRGJ7" type="github">
  <diagram name="Page-1" id="GFKkaTb2fGYYAdrBlMjA">
    <mxGraphModel>
      <root>
        <mxCell id="0" />
        <mxCell id="1" parent="0" />
      </root>
    </mxGraphModel>
  </diagram>
</mxfile>
